<svg width="32" height="32" viewBox="0 0 32 32" fill="none" xmlns="http://www.w3.org/2000/svg">
<g clip-path="url(#clip0_9_23368)" filter="url(#filter0_ddd_9_23368)">
<path d="M28 12C28 5.37258 22.6274 0 16 0C9.37258 0 4 5.37258 4 12C4 17.9895 8.3882 22.954 14.125 23.8542V15.4688H11.0781V12H14.125V9.35625C14.125 6.34875 15.9166 4.6875 18.6576 4.6875C19.9701 4.6875 21.3438 4.92188 21.3438 4.92188V7.875H19.8306C18.34 7.875 17.875 8.80008 17.875 9.75V12H21.2031L20.6711 15.4688H17.875V23.8542C23.6118 22.954 28 17.9895 28 12Z" fill="#272D37"/>
<path d="M20.6711 15.4688L21.2031 12H17.875V9.75C17.875 8.80102 18.34 7.875 19.8306 7.875H21.3438V4.92188C21.3438 4.92188 19.9705 4.6875 18.6576 4.6875C15.9166 4.6875 14.125 6.34875 14.125 9.35625V12H11.0781V15.4688H14.125V23.8542C15.3674 24.0486 16.6326 24.0486 17.875 23.8542V15.4688H20.6711Z" fill="white"/>
</g>
<defs>
<filter id="filter0_ddd_9_23368" x="0" y="0" width="32" height="32" filterUnits="userSpaceOnUse" color-interpolation-filters="sRGB">
<feFlood flood-opacity="0" result="BackgroundImageFix"/>
<feColorMatrix in="SourceAlpha" type="matrix" values="0 0 0 0 0 0 0 0 0 0 0 0 0 0 0 0 0 0 127 0" result="hardAlpha"/>
<feOffset dy="4"/>
<feGaussianBlur stdDeviation="2"/>
<feComposite in2="hardAlpha" operator="out"/>
<feColorMatrix type="matrix" values="0 0 0 0 0 0 0 0 0 0 0 0 0 0 0 0 0 0 0.25 0"/>
<feBlend mode="normal" in2="BackgroundImageFix" result="effect1_dropShadow_9_23368"/>
<feColorMatrix in="SourceAlpha" type="matrix" values="0 0 0 0 0 0 0 0 0 0 0 0 0 0 0 0 0 0 127 0" result="hardAlpha"/>
<feOffset dy="4"/>
<feGaussianBlur stdDeviation="2"/>
<feComposite in2="hardAlpha" operator="out"/>
<feColorMatrix type="matrix" values="0 0 0 0 0 0 0 0 0 0 0 0 0 0 0 0 0 0 0.25 0"/>
<feBlend mode="normal" in2="effect1_dropShadow_9_23368" result="effect2_dropShadow_9_23368"/>
<feColorMatrix in="SourceAlpha" type="matrix" values="0 0 0 0 0 0 0 0 0 0 0 0 0 0 0 0 0 0 127 0" result="hardAlpha"/>
<feOffset dy="4"/>
<feGaussianBlur stdDeviation="2"/>
<feComposite in2="hardAlpha" operator="out"/>
<feColorMatrix type="matrix" values="0 0 0 0 0 0 0 0 0 0 0 0 0 0 0 0 0 0 0.25 0"/>
<feBlend mode="normal" in2="effect2_dropShadow_9_23368" result="effect3_dropShadow_9_23368"/>
<feBlend mode="normal" in="SourceGraphic" in2="effect3_dropShadow_9_23368" result="shape"/>
</filter>
<clipPath id="clip0_9_23368">
<rect width="24" height="24" fill="white" transform="translate(4)"/>
</clipPath>
</defs>
</svg>
