<svg width="28" height="28" viewBox="0 0 28 28" fill="none" xmlns="http://www.w3.org/2000/svg">
<path d="M22.2372 8.23315L14.411 17.0376C14.2798 17.1852 14.0914 17.2499 13.9102 17.2298C14.1884 18.5374 13.8196 19.955 12.804 20.9707C11.4688 22.3059 9.1184 22.2436 7.01924 22.188C6.61135 22.1772 6.21294 22.1667 5.83331 22.1667C6.39396 21.0728 6.34134 19.8231 6.29151 18.6397C6.23505 17.2988 6.18217 16.0431 7.02926 15.196C8.04495 14.1803 9.46259 13.8115 10.7701 14.0897C10.7501 13.9085 10.8148 13.7202 10.9624 13.589L19.7668 5.76279C20.4593 5.14727 21.5115 5.17819 22.1666 5.83332C22.8218 6.48844 22.8527 7.54068 22.2372 8.23315Z" fill="#397F83"/>
</svg>
