<svg width="23" height="23" viewBox="0 0 23 23" fill="none" xmlns="http://www.w3.org/2000/svg">
<path d="M10.8334 1.50004C10.8334 0.855708 10.311 0.333374 9.66671 0.333374C9.02237 0.333374 8.50004 0.855708 8.50004 1.50004V5.00004C8.50004 5.64437 9.02237 6.16671 9.66671 6.16671C10.311 6.16671 10.8334 5.64437 10.8334 5.00004V1.50004Z" fill="#397F83"/>
<path d="M4.65833 3.00842C4.20272 2.5528 3.46403 2.5528 3.00842 3.00842C2.5528 3.46403 2.5528 4.20272 3.00842 4.65833L5.34175 6.99166C5.79736 7.44728 6.53605 7.44728 6.99166 6.99166C7.44728 6.53605 7.44728 5.79736 6.99166 5.34175L4.65833 3.00842Z" fill="#397F83"/>
<path d="M16.325 4.65833C16.7806 4.20272 16.7806 3.46403 16.325 3.00842C15.8694 2.5528 15.1307 2.5528 14.6751 3.00842L12.3417 5.34175C11.8861 5.79736 11.8861 6.53605 12.3417 6.99166C12.7974 7.44728 13.5361 7.44728 13.9917 6.99166L16.325 4.65833Z" fill="#397F83"/>
<path d="M1.50004 8.50004C0.855708 8.50004 0.333374 9.02237 0.333374 9.66671C0.333374 10.311 0.855708 10.8334 1.50004 10.8334H5.00004C5.64437 10.8334 6.16671 10.311 6.16671 9.66671C6.16671 9.02237 5.64437 8.50004 5.00004 8.50004H1.50004Z" fill="#397F83"/>
<path d="M6.99166 13.9917C7.44728 13.5361 7.44728 12.7974 6.99166 12.3417C6.53605 11.8861 5.79736 11.8861 5.34175 12.3417L3.00842 14.6751C2.5528 15.1307 2.5528 15.8694 3.00842 16.325C3.46403 16.7806 4.20272 16.7806 4.65833 16.325L6.99166 13.9917Z" fill="#397F83"/>
<path d="M9.92071 8.55153C10.0642 8.58946 10.2342 8.65132 10.4022 8.71246L20.4248 12.357C20.7464 12.4739 21.0341 12.5786 21.2557 12.6829C21.4759 12.7865 21.7591 12.9453 21.9438 13.2362C22.1788 13.6061 22.2375 14.0613 22.1042 14.4788C21.9994 14.807 21.7658 15.0325 21.5792 15.1887C21.3914 15.3459 21.1396 15.5201 20.8583 15.7148L19.9463 16.3462C19.7353 16.4923 19.6166 16.5753 19.5365 16.6417L19.5263 16.6503L19.5348 16.6606C19.6017 16.7403 19.7037 16.8432 19.8852 17.0247L21.9076 19.0471C22.6975 19.837 22.6975 21.1177 21.9076 21.9076C21.1177 22.6975 19.837 22.6975 19.0471 21.9076L17.0247 19.8852C16.8432 19.7037 16.7403 19.6017 16.6606 19.5348L16.6503 19.5263L16.6417 19.5365C16.5753 19.6166 16.4923 19.7353 16.3462 19.9463L15.7149 20.8583C15.5201 21.1396 15.3459 21.3914 15.1887 21.5792C15.0325 21.7658 14.807 21.9994 14.4788 22.1042C14.0613 22.2375 13.6061 22.1788 13.2362 21.9438C12.9453 21.7591 12.7865 21.4759 12.6829 21.2557C12.5786 21.0341 12.4739 20.7464 12.357 20.4248L8.71246 10.4022C8.65132 10.2342 8.58946 10.0642 8.55153 9.92071C8.51571 9.78528 8.4556 9.52227 8.55277 9.24018C8.66393 8.91748 8.91748 8.66393 9.24018 8.55277C9.52227 8.4556 9.78528 8.51571 9.92071 8.55153Z" fill="#397F83"/>
</svg>
