<svg width="22" height="6" viewBox="0 0 22 6" fill="none" xmlns="http://www.w3.org/2000/svg">
<path d="M0.5 3.00002C0.5 1.71136 1.54467 0.666687 2.83333 0.666687C4.122 0.666687 5.16667 1.71136 5.16667 3.00002C5.16667 4.28868 4.122 5.33335 2.83333 5.33335C1.54467 5.33335 0.5 4.28869 0.5 3.00002Z" fill="#397F83"/>
<path d="M8.66667 3.00002C8.66667 1.71136 9.71134 0.666687 11 0.666687C12.2887 0.666687 13.3333 1.71136 13.3333 3.00002C13.3333 4.28868 12.2887 5.33335 11 5.33335C9.71134 5.33335 8.66667 4.28869 8.66667 3.00002Z" fill="#397F83"/>
<path d="M19.1667 0.666687C17.878 0.666687 16.8333 1.71136 16.8333 3.00002C16.8333 4.28869 17.878 5.33335 19.1667 5.33335C20.4553 5.33335 21.5 4.28868 21.5 3.00002C21.5 1.71136 20.4553 0.666687 19.1667 0.666687Z" fill="#397F83"/>
</svg>
