<svg width="24" height="18" viewBox="0 0 24 18" fill="none" xmlns="http://www.w3.org/2000/svg">
<path d="M18.8067 11.2315C15.9513 11.2315 13.6364 8.90019 13.6364 6.02455C13.6364 3.14946 15.9513 0.818188 18.8067 0.818188C21.6622 0.818188 23.9771 3.14946 23.9771 6.02455L24 6.76855C24 12.5198 19.3702 17.1818 13.6593 17.1818V14.2064C15.6322 14.2064 17.4873 13.4329 18.882 12.0278C19.1509 11.7578 19.3958 11.4698 19.6167 11.1676C19.3527 11.2096 19.0822 11.2315 18.8067 11.2315ZM5.17036 11.2315C2.31491 11.2315 0 8.90019 0 6.02455C0 3.14946 2.31491 0.818188 5.17036 0.818188C8.02582 0.818188 10.3407 3.14946 10.3407 6.02455L10.3636 6.76855C10.3636 12.5198 5.73382 17.1818 0.022913 17.1818V14.2064C1.99582 14.2064 3.85091 13.4329 5.24564 12.0278C5.51455 11.7578 5.75946 11.4698 5.98037 11.1676C5.71637 11.2096 5.44582 11.2315 5.17036 11.2315Z" fill="#397F83"/>
</svg>
