<svg width="33" height="32" viewBox="0 0 33 32" fill="none" xmlns="http://www.w3.org/2000/svg">
<path d="M17.6667 11.832C19.967 11.24 21.6667 9.15183 21.6667 6.66671C21.6667 3.72119 19.2789 1.33337 16.3334 1.33337C13.3879 1.33337 11.0001 3.72119 11.0001 6.66671C11.0001 9.15183 12.6998 11.24 15.0001 11.832V14.6667H11.0001C8.79092 14.6667 7.00006 16.4576 7.00006 18.6667V20.1681C4.69976 20.7601 3.00006 22.8483 3.00006 25.3334C3.00006 28.2789 5.38788 30.6667 8.33339 30.6667C11.2789 30.6667 13.6667 28.2789 13.6667 25.3334C13.6667 22.8483 11.967 20.7601 9.66673 20.1681V18.6667C9.66673 17.9303 10.2637 17.3334 11.0001 17.3334H21.6667C22.4031 17.3334 23.0001 17.9303 23.0001 18.6667V20.1681C20.6998 20.7601 19.0001 22.8483 19.0001 25.3334C19.0001 28.2789 21.3879 30.6667 24.3334 30.6667C27.2789 30.6667 29.6667 28.2789 29.6667 25.3334C29.6667 22.8483 27.967 20.7601 25.6667 20.1681V18.6667C25.6667 16.4576 23.8759 14.6667 21.6667 14.6667H17.6667V11.832Z" fill="#F3FBFC"/>
</svg>
