<svg width="23" height="21" viewBox="0 0 23 21" fill="none" xmlns="http://www.w3.org/2000/svg">
<path d="M17.7239 9.27614L9.52086 17.4792C8.26561 15.2472 6.41953 13.4011 4.18752 12.1459L14.4916 1.84182C15.0196 1.3138 15.2836 1.0498 15.588 0.950878C15.8558 0.863867 16.1443 0.863867 16.4121 0.950878C16.7165 1.0498 16.9805 1.31381 17.5086 1.84183L19.8249 4.15818C20.3529 4.6862 20.6169 4.95021 20.7159 5.25465C20.8029 5.52244 20.8029 5.8109 20.7159 6.07869C20.6169 6.38313 20.3529 6.64714 19.8249 7.17516L19.6096 7.39052L21.8048 9.58579C22.5859 10.3668 22.5859 11.6332 21.8048 12.4142L18.2762 15.9428C17.7555 16.4635 16.9113 16.4635 16.3906 15.9428C15.8699 15.4221 15.8699 14.5779 16.3906 14.0572L19.4478 11L17.7239 9.27614Z" fill="#F3FBFC"/>
<path d="M2.34822 14.6222L1.3493 17.619C0.91504 18.9217 0.697908 19.5731 0.852378 20.0063C0.986802 20.3833 1.28345 20.6799 1.66041 20.8144C2.09359 20.9688 2.74499 20.7517 4.04777 20.3174L7.04453 19.3185C7.19551 19.2682 7.3148 19.2284 7.41446 19.1931C6.33045 17.0669 4.59982 15.3363 2.4736 14.2523C2.43831 14.3519 2.39854 14.4712 2.34822 14.6222Z" fill="#F3FBFC"/>
</svg>
