<svg width="28" height="28" viewBox="0 0 28 28" fill="none" xmlns="http://www.w3.org/2000/svg">
<path d="M8.27684 6.39118C8.52674 5.869 8.66667 5.28415 8.66667 4.66663C8.66667 2.45749 6.87581 0.666626 4.66667 0.666626C2.45753 0.666626 0.666672 2.45749 0.666672 4.66663C0.666672 6.87577 2.45753 8.66663 4.66667 8.66663C5.2842 8.66663 5.86905 8.52669 6.39123 8.2768L8.43787 10.3234C7.73984 11.3774 7.33334 12.6412 7.33334 14C7.33334 15.3587 7.73984 16.6226 8.43787 17.6765L6.69073 19.4236C6.47043 19.3647 6.23888 19.3333 6.00001 19.3333C4.52725 19.3333 3.33334 20.5272 3.33334 22C3.33334 23.4727 4.52725 24.6666 6.00001 24.6666C7.47276 24.6666 8.66667 23.4727 8.66667 22C8.66667 21.7611 8.63526 21.5295 8.57635 21.3092L10.3235 19.5621C11.3774 20.2601 12.6412 20.6666 14 20.6666C15.3588 20.6666 16.6226 20.2601 17.6765 19.5621L19.7232 21.6087C19.4733 22.1309 19.3333 22.7158 19.3333 23.3333C19.3333 25.5424 21.1242 27.3333 23.3333 27.3333C25.5425 27.3333 27.3333 25.5424 27.3333 23.3333C27.3333 21.1242 25.5425 19.3333 23.3333 19.3333C22.7158 19.3333 22.131 19.4732 21.6088 19.7231L19.5621 17.6765C20.2602 16.6226 20.6667 15.3587 20.6667 14C20.6667 12.6412 20.2602 11.3774 19.5621 10.3234L21.3093 8.5763C21.5296 8.63522 21.7611 8.66663 22 8.66663C23.4728 8.66663 24.6667 7.47272 24.6667 5.99996C24.6667 4.5272 23.4728 3.33329 22 3.33329C20.5272 3.33329 19.3333 4.5272 19.3333 5.99996C19.3333 6.23884 19.3647 6.47038 19.4237 6.69068L17.6765 8.43782C16.6226 7.7398 15.3588 7.33329 14 7.33329C12.6412 7.33329 11.3774 7.7398 10.3235 8.43782L8.27684 6.39118Z" fill="#F3FBFC"/>
</svg>
