<svg width="33" height="32" viewBox="0 0 33 32" fill="none" xmlns="http://www.w3.org/2000/svg">
<path d="M24.6667 12C27.6122 12 30 9.61223 30 6.66671C30 3.72119 27.6122 1.33337 24.6667 1.33337C21.7212 1.33337 19.3334 3.72119 19.3334 6.66671C19.3334 7.16967 19.403 7.65636 19.5331 8.11769L12.4554 12.2464C11.4889 11.2709 10.1484 10.6667 8.66671 10.6667C5.72119 10.6667 3.33337 13.0545 3.33337 16C3.33337 18.9456 5.72119 21.3334 8.66671 21.3334C10.1484 21.3334 11.4889 20.7292 12.4554 19.7537L19.5331 23.8824C19.403 24.3437 19.3334 24.8304 19.3334 25.3334C19.3334 28.2789 21.7212 30.6667 24.6667 30.6667C27.6122 30.6667 30 28.2789 30 25.3334C30 22.3879 27.6122 20 24.6667 20C23.185 20 21.8445 20.6042 20.878 21.5797L13.8003 17.451C13.9304 16.9897 14 16.503 14 16C14 15.4971 13.9304 15.0104 13.8003 14.5491L20.878 10.4204C21.8445 11.3958 23.185 12 24.6667 12Z" fill="#F3FBFC"/>
</svg>
