<svg width="30" height="30" viewBox="0 0 30 30" fill="none" xmlns="http://www.w3.org/2000/svg">
<path fill-rule="evenodd" clip-rule="evenodd" d="M0.666687 15C0.666687 6.89986 7.23318 0.333374 15.3334 0.333374C23.4335 0.333374 30 6.89986 30 15C30 23.1002 23.4335 29.6667 15.3334 29.6667C7.23318 29.6667 0.666687 23.1002 0.666687 15ZM15.3334 4.33337C16.0697 4.33337 16.6667 4.93033 16.6667 5.66671V10.8519C16.6667 11.5883 16.0697 12.1852 15.3334 12.1852C14.597 12.1852 14 11.5883 14 10.8519V5.66671C14 4.93033 14.597 4.33337 15.3334 4.33337ZM24.6667 16.3334C25.4031 16.3334 26 15.7364 26 15C26 14.2637 25.4031 13.6667 24.6667 13.6667H19.4815C18.7451 13.6667 18.1482 14.2637 18.1482 15C18.1482 15.7364 18.7451 16.3334 19.4815 16.3334H24.6667ZM15.3334 17.8149C16.0697 17.8149 16.6667 18.4118 16.6667 19.1482V24.3334C16.6667 25.0698 16.0697 25.6667 15.3334 25.6667C14.597 25.6667 14 25.0698 14 24.3334V19.1482C14 18.4118 14.597 17.8149 15.3334 17.8149ZM11.1852 16.3334C11.9216 16.3334 12.5185 15.7364 12.5185 15C12.5185 14.2637 11.9216 13.6667 11.1852 13.6667H6.00002C5.26364 13.6667 4.66669 14.2637 4.66669 15C4.66669 15.7364 5.26364 16.3334 6.00002 16.3334H11.1852Z" fill="#F3FBFC"/>
</svg>
