<svg width="28" height="28" viewBox="0 0 28 28" fill="none" xmlns="http://www.w3.org/2000/svg">
<path fill-rule="evenodd" clip-rule="evenodd" d="M14 26.8334C6.91237 26.8334 1.16669 21.0877 1.16669 14C1.16669 6.91237 6.91237 1.16669 14 1.16669C21.0877 1.16669 26.8334 6.91237 26.8334 14C26.8334 21.0877 21.0877 26.8334 14 26.8334ZM9.91666 9.33335C8.95016 9.33335 8.16666 10.1169 8.16666 11.0834C8.16666 12.0499 8.95016 12.8334 9.91666 12.8334C10.8832 12.8334 11.6667 12.0499 11.6667 11.0834C11.6667 10.1169 10.8832 9.33335 9.91666 9.33335ZM10.3768 16.9783C10.0887 16.402 9.38788 16.1684 8.81158 16.4565C8.23527 16.7447 8.00167 17.4455 8.28983 18.0218C8.86752 19.1772 10.7387 21 14 21C17.2613 21 19.1325 19.1772 19.7102 18.0218C19.9983 17.4455 19.7647 16.7447 19.1884 16.4565C18.6121 16.1684 17.9113 16.402 17.6232 16.9783C17.4231 17.3784 16.3387 18.6667 14 18.6667C11.6613 18.6667 10.5769 17.3784 10.3768 16.9783ZM16.3333 11.0834C16.3333 10.1169 17.1168 9.33335 18.0833 9.33335C19.0498 9.33335 19.8333 10.1169 19.8333 11.0834C19.8333 12.0499 19.0498 12.8334 18.0833 12.8334C17.1168 12.8334 16.3333 12.0499 16.3333 11.0834Z" fill="#397F83"/>
</svg>
